HIERARCHY
ROOT Hips
{
	OFFSET 0.000000 97.167313 0.000000
	CHANNELS 6 Xposition Yposition Zposition Xrotation Yrotation Zrotation
	JOINT Spine
	{
		OFFSET 0.000000 13.784798 0.064400
		CHANNELS 3 Xrotation Yrotation Zrotation
		JOINT Spine1
		{
			OFFSET 0.000000 12.037903 0.404700
			CHANNELS 3 Xrotation Yrotation Zrotation
			JOINT Spine2
			{
				OFFSET 0.000000 17.795601 0.420200
				CHANNELS 3 Xrotation Yrotation Zrotation
				JOINT Neck
				{
					OFFSET 0.000000 39.131302 11.954600
					CHANNELS 3 Xrotation Yrotation Zrotation
					JOINT Head
					{
						OFFSET 0.000000 14.456192 15.627699
						CHANNELS 3 Xrotation Yrotation Zrotation
						JOINT HeadTop_End
						{
							OFFSET 0.000000 15.703506 7.603401
							CHANNELS 3 Xrotation Yrotation Zrotation
							End Site
							{
								OFFSET 0.000000 17.447403 0.000000
							}
						}
					}
				}
				JOINT LeftShoulder
				{
					OFFSET 17.399500 24.608795 1.168800
					CHANNELS 3 Xrotation Yrotation Zrotation
					JOINT LeftArm
					{
						OFFSET 18.980635 5.765305 1.818600
						CHANNELS 3 Xrotation Yrotation Zrotation
						JOINT LeftForeArm
						{
							OFFSET 49.290169 0.000000 0.000000
							CHANNELS 3 Xrotation Yrotation Zrotation
							JOINT LeftHand
							{
								OFFSET 31.562012 0.000000 0.000000
								CHANNELS 3 Xrotation Yrotation Zrotation
								JOINT LeftHandThumb1
								{
									OFFSET 6.133995 -4.388519 7.076070
									CHANNELS 3 Xrotation Yrotation Zrotation
									JOINT LeftHandThumb2
									{
										OFFSET 6.037666 -3.485840 3.485847
										CHANNELS 3 Xrotation Yrotation Zrotation
										JOINT LeftHandThumb3
										{
											OFFSET 6.496506 -3.750763 3.750761
											CHANNELS 3 Xrotation Yrotation Zrotation
											JOINT LeftHandThumb4
											{
												OFFSET 5.616882 -3.242905 3.242910
												CHANNELS 3 Xrotation Yrotation Zrotation
												End Site
												{
													OFFSET -1.254608 7.132141 0.375429
												}
											}
										}
									}
								}
								JOINT LeftHandPinky1
								{
									OFFSET 18.920792 -0.453171 -11.426712
									CHANNELS 3 Xrotation Yrotation Zrotation
									JOINT LeftHandPinky2
									{
										OFFSET 4.919586 0.000000 0.000000
										CHANNELS 3 Xrotation Yrotation Zrotation
										JOINT LeftHandPinky3
										{
											OFFSET 5.233047 0.000000 0.000000
											CHANNELS 3 Xrotation Yrotation Zrotation
											JOINT LeftHandPinky4
											{
												OFFSET 5.571716 0.000000 0.000000
												CHANNELS 3 Xrotation Yrotation Zrotation
												End Site
												{
													OFFSET -3.459808 4.342407 -0.466164
												}
											}
										}
									}
								}
								JOINT LeftHandRing1
								{
									OFFSET 22.726120 -0.094986 -6.500475
									CHANNELS 3 Xrotation Yrotation Zrotation
									JOINT LeftHandRing2
									{
										OFFSET 6.408615 0.000000 0.000000
										CHANNELS 3 Xrotation Yrotation Zrotation
										JOINT LeftHandRing3
										{
											OFFSET 6.150223 0.000000 0.000000
											CHANNELS 3 Xrotation Yrotation Zrotation
											JOINT LeftHandRing4
											{
												OFFSET 6.145386 0.000000 0.000000
												CHANNELS 3 Xrotation Yrotation Zrotation
												End Site
												{
													OFFSET -3.671402 4.923981 -0.202372
												}
											}
										}
									}
								}
								JOINT LeftHandMiddle1
								{
									OFFSET 23.373947 0.000000 0.000001
									CHANNELS 3 Xrotation Yrotation Zrotation
									JOINT LeftHandMiddle2
									{
										OFFSET 6.996567 0.000000 0.000000
										CHANNELS 3 Xrotation Yrotation Zrotation
										JOINT LeftHandMiddle3
										{
											OFFSET 7.015945 0.000000 0.000000
											CHANNELS 3 Xrotation Yrotation Zrotation
											JOINT LeftHandMiddle4
											{
												OFFSET 7.721573 0.000000 0.000000
												CHANNELS 3 Xrotation Yrotation Zrotation
												End Site
												{
													OFFSET -4.651108 6.158463 0.251582
												}
											}
										}
									}
								}
								JOINT LeftHandIndex1
								{
									OFFSET 21.310577 -0.490082 6.209344
									CHANNELS 3 Xrotation Yrotation Zrotation
									JOINT LeftHandIndex2
									{
										OFFSET 7.536453 0.000000 0.000000
										CHANNELS 3 Xrotation Yrotation Zrotation
										JOINT LeftHandIndex3
										{
											OFFSET 7.512344 0.000000 0.000000
											CHANNELS 3 Xrotation Yrotation Zrotation
											JOINT LeftHandIndex4
											{
												OFFSET 10.212402 0.000000 0.000001
												CHANNELS 3 Xrotation Yrotation Zrotation
												End Site
												{
													OFFSET -5.180801 8.690506 1.388433
												}
											}
										}
									}
								}
							}
						}
					}
				}
				JOINT RightShoulder
				{
					OFFSET -17.399500 24.608795 1.168800
					CHANNELS 3 Xrotation Yrotation Zrotation
					JOINT RightArm
					{
						OFFSET -18.980635 5.765305 1.818600
						CHANNELS 3 Xrotation Yrotation Zrotation
						JOINT RightForeArm
						{
							OFFSET -49.290169 0.000000 0.000000
							CHANNELS 3 Xrotation Yrotation Zrotation
							JOINT RightHand
							{
								OFFSET -31.562012 0.000000 0.000000
								CHANNELS 3 Xrotation Yrotation Zrotation
								JOINT RightHandThumb1
								{
									OFFSET -6.133995 -4.388519 7.076070
									CHANNELS 3 Xrotation Yrotation Zrotation
									JOINT RightHandThumb2
									{
										OFFSET -6.037666 -3.485840 3.485847
										CHANNELS 3 Xrotation Yrotation Zrotation
										JOINT RightHandThumb3
										{
											OFFSET -6.496506 -3.750763 3.750761
											CHANNELS 3 Xrotation Yrotation Zrotation
											JOINT RightHandThumb4
											{
												OFFSET -5.616882 -3.242905 3.242910
												CHANNELS 3 Xrotation Yrotation Zrotation
												End Site
												{
													OFFSET 1.254608 7.132141 0.375429
												}
											}
										}
									}
								}
								JOINT RightHandIndex1
								{
									OFFSET -21.310577 -0.490082 6.209344
									CHANNELS 3 Xrotation Yrotation Zrotation
									JOINT RightHandIndex2
									{
										OFFSET -7.536453 0.000000 0.000000
										CHANNELS 3 Xrotation Yrotation Zrotation
										JOINT RightHandIndex3
										{
											OFFSET -7.512344 0.000000 0.000000
											CHANNELS 3 Xrotation Yrotation Zrotation
											JOINT RightHandIndex4
											{
												OFFSET -10.212402 0.000000 0.000001
												CHANNELS 3 Xrotation Yrotation Zrotation
												End Site
												{
													OFFSET 5.180801 8.690506 1.388433
												}
											}
										}
									}
								}
								JOINT RightHandMiddle1
								{
									OFFSET -23.373947 0.000000 0.000001
									CHANNELS 3 Xrotation Yrotation Zrotation
									JOINT RightHandMiddle2
									{
										OFFSET -6.996567 0.000000 0.000000
										CHANNELS 3 Xrotation Yrotation Zrotation
										JOINT RightHandMiddle3
										{
											OFFSET -7.015945 0.000000 0.000000
											CHANNELS 3 Xrotation Yrotation Zrotation
											JOINT RightHandMiddle4
											{
												OFFSET -7.721573 0.000000 0.000000
												CHANNELS 3 Xrotation Yrotation Zrotation
												End Site
												{
													OFFSET 4.651108 6.158463 0.251582
												}
											}
										}
									}
								}
								JOINT RightHandRing1
								{
									OFFSET -22.726120 -0.094986 -6.500475
									CHANNELS 3 Xrotation Yrotation Zrotation
									JOINT RightHandRing2
									{
										OFFSET -6.408615 0.000000 0.000000
										CHANNELS 3 Xrotation Yrotation Zrotation
										JOINT RightHandRing3
										{
											OFFSET -6.150223 0.000000 0.000000
											CHANNELS 3 Xrotation Yrotation Zrotation
											JOINT RightHandRing4
											{
												OFFSET -6.145386 0.000000 0.000000
												CHANNELS 3 Xrotation Yrotation Zrotation
												End Site
												{
													OFFSET 3.671402 4.923981 -0.202372
												}
											}
										}
									}
								}
								JOINT RightHandPinky1
								{
									OFFSET -18.920792 -0.453171 -11.426712
									CHANNELS 3 Xrotation Yrotation Zrotation
									JOINT RightHandPinky2
									{
										OFFSET -4.919586 0.000000 0.000000
										CHANNELS 3 Xrotation Yrotation Zrotation
										JOINT RightHandPinky3
										{
											OFFSET -5.233047 0.000000 0.000000
											CHANNELS 3 Xrotation Yrotation Zrotation
											JOINT RightHandPinky4
											{
												OFFSET -5.571716 0.000000 0.000000
												CHANNELS 3 Xrotation Yrotation Zrotation
												End Site
												{
													OFFSET 3.459808 4.342407 -0.466164
												}
											}
										}
									}
								}
							}
						}
					}
				}
			}
		}
	}
	JOINT LeftUpLeg
	{
		OFFSET 19.899099 -7.885101 -3.429500
		CHANNELS 3 Xrotation Yrotation Zrotation
		JOINT LeftLeg
		{
			OFFSET 1.745560 -36.997807 10.304700
			CHANNELS 3 Xrotation Yrotation Zrotation
			JOINT LeftFoot
			{
				OFFSET -1.745558 -29.803308 -13.615400
				CHANNELS 3 Xrotation Yrotation Zrotation
				JOINT LeftToeBase
				{
					OFFSET 1.181900 -18.539904 15.226099
					CHANNELS 3 Xrotation Yrotation Zrotation
					JOINT LeftToe_End
					{
						OFFSET -0.863701 1.402801 16.534700
						CHANNELS 3 Xrotation Yrotation Zrotation
						End Site
						{
							OFFSET 0.000000 16.616566 0.000000
						}
					}
				}
			}
		}
	}
	JOINT RightUpLeg
	{
		OFFSET -19.899099 -7.885101 -3.429500
		CHANNELS 3 Xrotation Yrotation Zrotation
		JOINT RightLeg
		{
			OFFSET -1.745560 -36.997807 10.304700
			CHANNELS 3 Xrotation Yrotation Zrotation
			JOINT RightFoot
			{
				OFFSET 1.745558 -29.803308 -13.615400
				CHANNELS 3 Xrotation Yrotation Zrotation
				JOINT RightToeBase
				{
					OFFSET -1.181900 -18.539904 15.226099
					CHANNELS 3 Xrotation Yrotation Zrotation
					JOINT RightToe_End
					{
						OFFSET 0.863701 1.402801 16.534700
						CHANNELS 3 Xrotation Yrotation Zrotation
						End Site
						{
							OFFSET 0.000000 16.616566 0.000000
						}
					}
				}
			}
		}
	}
}
MOTION
Frames: 5
Frame Time: 0.033333
0.402260 76.116867 0.479382 -14.106111 4.452505 -0.087618 20.016313 -0.022100 0.560695 6.967291 -0.337538 0.679491 6.967510 -0.336989 0.677438 -12.249417 -1.248219 -0.495995 -16.116764 -1.754210 -0.002254 -0.000001 -0.000000 0.000000 3.082220 -9.945124 -6.811326 -13.959264 -7.908219 -60.295278 69.634264 -63.509080 71.597062 17.167904 -2.491258 -13.648290 2.689256 3.159897 6.593325 -0.080943 21.143667 -2.540013 -0.000000 -0.000024 -0.000000 -0.000001 0.000001 -0.000002 -11.942440 9.095570 -39.265439 4.640667 -6.164110 -45.289297 0.000003 0.000004 -0.000002 -0.000000 0.000002 0.000001 -10.744691 8.325284 -36.571066 3.038188 0.221614 -39.078688 -0.000008 -0.000008 -0.000011 -0.000000 -0.000001 0.000005 -13.823049 9.936936 -22.469198 6.048988 4.246431 -31.221963 0.000004 -0.000000 0.000009 -0.000003 -0.000000 0.000004 -10.621178 2.937303 -19.267708 1.669133 6.188684 -21.755657 -0.000020 0.000005 -0.000003 -0.000003 -0.000000 -0.000001 8.709563 -2.418521 18.823149 -21.494482 12.934332 56.855499 76.344159 65.516985 -70.724573 6.442895 -2.140739 3.544949 2.689009 -3.159226 -6.593401 -0.079157 -21.146001 2.540867 0.000002 0.000009 0.000017 0.000003 -0.000003 0.000001 -10.621228 -2.937102 19.269084 1.668971 -6.188774 21.755257 -0.000009 -0.000016 -0.000004 -0.000002 -0.000002 0.000003 -13.688488 -10.244114 24.164171 6.044755 -4.250349 31.223356 -0.000009 0.000008 -0.000009 -0.000001 0.000003 -0.000004 -10.744616 -8.325827 36.569997 3.037652 -0.220793 39.079317 0.000000 0.000004 0.000007 -0.000001 0.000001 -0.000005 -11.872867 -9.179241 39.251967 4.640932 6.162603 45.288857 0.000003 0.000006 0.000008 0.000000 0.000002 0.000004 -16.629911 -4.420854 19.093309 57.166890 -4.112345 -1.445972 -25.521859 0.939783 -14.345137 -0.000002 0.000000 -0.000001 0.000000 0.000001 -0.000000 -8.141498 -8.856124 -19.786500 55.996548 4.043490 1.368946 -32.162616 -6.535270 12.836514 -0.000057 0.000000 -0.000006 0.000000 0.000000 -0.000000 
0.481088 75.608917 -0.125660 -13.385773 4.714857 -0.077479 20.249810 0.026787 0.596237 7.370402 -0.258529 0.703802 7.370649 -0.256636 0.701637 -11.310201 -1.455833 -0.372543 -17.209635 -1.793213 -0.423602 0.000001 0.000000 0.000000 3.012553 -11.144559 -6.519705 -16.354560 -9.481944 -56.654698 65.396479 -64.999256 66.801005 15.815817 -5.832107 -18.616417 3.688407 3.410771 4.922888 -1.845167 18.390597 -0.640409 0.000005 -0.000024 -0.000004 -0.000003 0.000001 -0.000002 -10.242364 9.431252 -35.105649 4.443386 -6.122953 -39.319470 0.000001 0.000009 -0.000003 -0.000000 -0.000001 -0.000006 -10.497397 8.370198 -32.444433 2.904046 0.070622 -35.123514 -0.000010 -0.000006 -0.000005 -0.000001 -0.000002 0.000001 -13.864578 9.572976 -19.591820 5.752414 3.718506 -28.429918 0.000006 -0.000002 0.000013 0.000000 -0.000003 0.000001 -10.745211 2.390817 -16.137302 1.530271 5.817036 -19.534187 -0.000022 0.000004 -0.000004 0.000001 0.000002 -0.000003 8.495643 -1.890059 18.286558 -20.231864 22.031907 53.820272 63.368098 69.702203 -64.281554 5.063054 -3.545899 1.585378 3.688134 -3.410113 -4.922979 -1.826694 -18.359349 0.714998 -0.000000 0.000012 0.000019 -0.000001 -0.000001 -0.000002 -10.762876 -2.221867 15.928609 1.506130 -5.755335 19.126314 -0.000002 -0.000011 0.000001 -0.000000 -0.000003 -0.000001 -13.804208 -9.691635 20.787602 5.721952 -3.710081 28.240372 -0.000008 0.000001 -0.000014 0.000001 0.000002 -0.000004 -10.557970 -8.254582 32.232199 2.856829 0.000304 34.572427 0.000004 0.000007 0.000005 -0.000001 0.000001 -0.000005 -10.165260 -9.563988 35.091640 4.424084 6.340188 37.965637 0.000006 0.000011 0.000004 0.000001 -0.000003 0.000000 -18.759586 -4.915013 18.863826 58.170556 -4.045140 -1.414778 -25.104350 0.728432 -14.339396 -0.000002 0.000000 -0.000001 -0.000000 0.000001 -0.000000 -9.994862 -8.736292 -20.173654 57.150348 4.104365 1.391875 -32.137901 -6.549530 12.870744 -0.000057 0.000000 -0.000006 -0.000000 -0.000002 -0.000000 
0.596051 74.819969 -0.962261 -12.371982 4.865816 -0.193389 20.728890 0.084800 0.668015 8.210907 -0.193875 0.798443 8.211192 -0.190896 0.795964 -9.851877 -1.529029 -0.317628 -19.084802 -1.803244 -0.615547 -0.000000 -0.000000 0.000000 2.923410 -12.915023 -5.995491 -20.116871 -12.117113 -54.089009 56.106316 -66.064329 57.125571 13.680997 -10.233677 -21.409392 4.842558 3.662394 3.002450 -3.822985 15.281309 1.449778 0.000001 -0.000027 -0.000008 -0.000000 0.000001 -0.000002 -8.540626 10.065383 -30.246178 4.083064 -6.085411 -32.928325 0.000001 0.000007 -0.000001 0.000001 -0.000004 -0.000005 -10.384745 8.453188 -27.649376 2.698154 -0.117665 -30.553338 -0.000007 -0.000008 -0.000007 0.000002 -0.000004 0.000003 -13.953177 9.157035 -16.274886 5.447688 3.097511 -25.229785 0.000004 -0.000004 0.000014 0.000001 0.000001 0.000006 -10.872751 1.782895 -12.537540 1.388147 5.380479 -16.964913 -0.000019 0.000009 0.000001 -0.000001 -0.000002 -0.000002 8.073734 -0.529444 17.573438 -19.754365 32.791093 49.766415 40.701514 72.640052 -47.422663 1.181216 -3.689644 -1.625333 4.842255 -3.661753 -3.002517 -3.790267 -15.260541 -1.335309 -0.000002 0.000008 0.000020 0.000001 0.000001 0.000003 -10.904056 -1.454259 12.101950 1.344351 -5.250274 16.118630 -0.000008 -0.000018 -0.000004 -0.000003 -0.000003 -0.000001 -13.958620 -9.090809 16.917101 5.387748 -3.071678 24.835317 -0.000006 0.000006 -0.000009 -0.000001 0.000001 -0.000009 -10.498086 -8.219083 27.217530 2.595000 0.271465 29.407974 0.000006 0.000005 0.000005 0.000002 -0.000004 -0.000009 -8.497864 -10.195270 30.175134 3.962878 6.541637 29.585542 0.000003 0.000006 0.000005 -0.000001 -0.000003 0.000000 -21.691906 -5.541878 18.700329 59.718393 -4.003401 -1.392962 -24.680112 0.554498 -14.333803 -0.000002 0.000000 -0.000001 -0.000000 0.000001 -0.000000 -12.681105 -8.273527 -20.548076 58.833146 4.326648 1.487372 -32.052165 -6.710730 12.793060 -0.000057 -0.000000 -0.000006 -0.000000 -0.000000 -0.000000 
0.704432 73.781654 -2.070847 -11.282358 4.908304 -0.204969 21.579059 0.118428 0.761449 9.730960 -0.173990 0.969756 9.731329 -0.170315 0.966350 -7.374252 -1.465354 -0.435157 -22.353802 -1.844594 -0.522430 -0.000000 -0.000000 -0.000000 2.851564 -15.372039 -4.821007 -27.416613 -16.577863 -54.224855 40.298082 -64.349726 41.592731 11.423964 -13.300117 -17.039302 6.004779 3.875224 1.076779 -5.767204 12.227685 3.457392 0.000005 -0.000023 -0.000004 -0.000003 -0.000001 -0.000001 -7.133491 10.937940 -25.299258 3.569972 -6.096148 -26.539407 0.000002 0.000010 -0.000006 0.000000 0.000000 -0.000002 -10.458025 8.543517 -22.790856 2.438258 -0.331229 -25.946681 -0.000007 -0.000008 -0.000009 -0.000001 0.000000 -0.000000 -14.085599 8.737024 -12.940320 5.175674 2.464523 -22.029366 0.000004 -0.000004 0.000009 0.000001 -0.000000 0.000004 -10.987894 1.194478 -8.926090 1.265072 4.933575 -14.371884 -0.000019 0.000008 -0.000004 -0.000000 -0.000000 0.000001 7.511379 1.197899 16.310538 -23.766096 41.896852 47.934688 15.362637 71.219291 -25.585359 -5.853761 -1.232738 -4.133727 6.004459 -3.874607 -1.076882 -5.722836 -12.269099 -3.346369 -0.000007 0.000008 0.000014 -0.000001 0.000000 0.000002 -11.030064 -0.741645 8.278409 1.209479 -4.737841 13.116842 -0.000010 -0.000012 -0.000010 -0.000006 -0.000003 0.000003 -14.140572 -8.519208 13.047853 5.092554 -2.415081 21.444895 -0.000005 0.000009 -0.000009 -0.000001 0.000003 -0.000009 -10.607705 -8.206513 22.163095 2.277264 0.573387 24.247277 0.000005 0.000007 0.000007 0.000000 -0.000001 -0.000007 -7.164516 -10.991944 25.110101 3.274039 6.807193 21.230757 0.000003 0.000005 0.000010 -0.000002 -0.000000 0.000002 -25.199378 -6.178342 18.407845 61.527246 -4.105658 -1.436154 -24.019487 0.454541 -14.226119 -0.000002 0.000001 -0.000001 0.000000 0.000002 -0.000000 -16.035220 -7.330020 -21.087316 61.084909 4.518736 1.555775 -31.888627 -6.859161 12.819159 -0.000057 0.000000 -0.000006 -0.000000 -0.000002 -0.000000 
0.815129 72.560059 -3.253885 -9.811668 4.926604 0.065866 22.482363 0.108930 0.947238 11.322535 -0.303944 1.150406 11.323428 -0.294837 1.142765 -3.228037 -1.014448 -1.047748 -24.588078 -1.823055 -0.011534 0.000001 0.000000 -0.000000 2.910776 -17.183585 -2.873986 -40.844005 -23.505416 -57.851279 20.856017 -54.970093 22.696452 7.041733 -16.632612 -1.402739 7.024239 4.028935 -0.606658 -7.446115 9.612787 5.148340 0.000007 -0.000025 -0.000003 0.000005 0.000001 -0.000001 -6.171887 11.864702 -20.910897 2.961656 -6.186991 -20.573064 0.000007 0.000008 -0.000010 -0.000000 0.000002 -0.000007 -10.674549 8.604327 -18.499897 2.167716 -0.548304 -21.882765 -0.000006 -0.000009 -0.000007 -0.000002 -0.000002 0.000001 -14.236796 8.361378 -10.014302 4.965100 1.903613 -19.234550 0.000004 -0.000001 0.000013 0.000001 -0.000003 0.000006 -11.081232 0.693442 -5.760404 1.173477 4.533862 -12.077654 -0.000022 0.000003 0.000000 -0.000003 0.000001 0.000001 6.923759 3.016848 14.686312 -37.695473 43.649605 54.020540 -2.031191 64.155461 -9.753402 -17.608859 5.058648 -2.734687 7.023893 -4.028307 0.606563 -7.392172 -9.748374 -5.072636 -0.000003 0.000009 0.000017 0.000001 0.000002 0.000001 -11.133296 -0.164896 4.947348 1.113971 -4.286056 10.503759 -0.000008 -0.000016 -0.000004 0.000000 -0.000002 -0.000006 -14.324080 -8.041164 9.675994 4.867930 -1.829773 18.502767 -0.000007 0.000007 -0.000009 0.000002 0.000001 -0.000006 -10.842333 -8.193887 17.727117 1.957729 0.871013 19.751900 0.000004 0.000004 0.000007 0.000001 0.000002 -0.000007 -6.291159 -11.787026 20.572960 2.497995 7.144397 13.971063 0.000004 0.000008 0.000003 0.000000 -0.000003 0.000004 -29.406201 -6.563015 17.790478 63.328428 -4.209263 -1.481419 -23.092041 0.267520 -14.035746 -0.000002 0.000000 -0.000001 -0.000000 0.000001 0.000000 -20.183810 -6.102382 -22.118092 63.758593 4.674124 1.599183 -31.727701 -6.766929 13.037531 -0.000057 -0.000000 -0.000006 0.000000 -0.000002 -0.000000 
